<svg width="414" height="188" viewBox="0 0 414 188" fill="none" xmlns="http://www.w3.org/2000/svg">
<path fill-rule="evenodd" clip-rule="evenodd" d="M35.188 21.028C23.188 21.028 5.03362 44.5121 5.22339 59.9148C5.248 61.9119 5.39591 63.95 5.66711 66.0293C8.19062 79.9086 17.0152 85.683 30.5726 86.759C43.0005 87.8527 55.0804 88.3995 66.8123 88.3995C78.5442 88.3995 90.5744 87.8527 102.903 86.759C118.88 85.5108 128.405 74.9771 128.405 59.3182C128.405 44.8692 112.688 22.028 98.688 22.028C89.5701 22.028 73.9707 41.528 73.9707 46.7643V46.6418C71.3857 46.443 68.9996 46.3435 66.8123 46.3435C64.625 46.3435 62.1394 46.443 59.3556 46.6418V46.7643C59.3556 46.6414 59.3526 46.5195 59.3468 46.3988C59.1881 39.8703 46.1155 21.028 35.188 21.028ZM248.277 173.055C245.294 173.055 242.56 172.607 240.074 171.712C237.589 170.917 235.501 169.674 233.811 167.984C232.121 166.294 230.878 164.156 230.082 161.571C229.287 159.086 229.088 156.153 229.486 152.772C229.959 148.734 230.499 144.64 231.043 140.52V140.52C232.666 128.207 234.319 115.67 234.319 103.751C234.319 87.8433 233.425 52.1842 231.635 36.7737C230.84 29.3169 232.232 23.8486 235.811 20.3688C239.39 16.7896 244.212 15 250.277 15C255.546 15 259.871 16.4913 263.252 19.474C266.731 22.4567 268.77 27.0302 269.366 33.1944C271.056 49.4004 271.901 86.2029 271.901 103.602C271.901 116.511 270.335 129.669 268.837 142.261C268.315 146.64 267.802 150.951 267.366 155.159C266.77 161.124 264.731 165.598 261.252 168.581C257.871 171.563 253.546 173.055 248.277 173.055ZM183.166 158.625C178.394 157.531 174.417 155.642 171.235 152.957C168.153 150.273 165.867 147.141 164.375 143.562C162.983 139.983 162.437 136.205 162.735 132.228C163.133 128.151 164.375 124.224 166.463 120.446C168.551 116.569 171.832 112.84 176.306 109.261C180.88 105.582 186.149 102.451 192.114 99.8655C193.109 99.4679 193.705 98.921 193.904 98.2251C194.202 97.4297 194.152 96.7834 193.755 96.2863C193.457 95.6898 192.86 95.2921 191.965 95.0932C191.17 94.8944 190.176 95.0933 188.982 95.6898C185.503 97.38 182.172 98.7222 178.99 99.7164C175.908 100.711 172.379 101.407 168.402 101.804C164.027 102.103 160.398 102.053 157.515 101.655C154.731 101.158 152.544 100.313 150.953 99.1199C149.362 97.9268 148.269 96.336 147.672 94.3476C147.076 92.2597 146.827 89.7741 146.927 86.8908C147.125 81.6214 148.816 77.9428 151.997 75.8549C155.179 73.6676 160.498 72.5739 167.955 72.5739H172.578C174.566 72.5739 176.704 72.6236 178.99 72.7231C181.377 72.7231 183.713 72.7728 186 72.8722C188.287 72.8722 190.325 72.9219 192.114 73.0213C193.307 73.0213 194.202 72.7231 194.799 72.1265C195.395 71.53 195.694 70.8837 195.694 70.1878C195.694 69.3924 195.395 68.6964 194.799 68.0999C194.202 67.5034 193.307 67.2051 192.114 67.2051H159.752C154.085 67.2051 149.561 65.664 146.181 62.5819C142.9 59.4004 141.259 54.1807 141.259 46.9228C141.259 41.9516 142.999 37.9747 146.479 34.992C150.058 31.9099 154.483 29.7723 159.752 28.5792C162.238 27.9827 165.27 27.5353 168.849 27.237C172.429 26.9387 176.107 26.7896 179.885 26.7896C183.763 26.7896 187.491 26.9387 191.07 27.237C194.749 27.5353 197.881 27.9827 200.466 28.5792C206.829 29.9712 211.701 32.8047 215.081 37.0799C218.461 41.2557 220.997 47.8673 222.687 56.9148C223.781 62.0848 224.526 67.7519 224.924 73.9161C225.421 79.9809 225.62 86.1452 225.52 92.4088C225.52 98.6725 225.272 104.837 224.775 110.902C224.278 116.867 223.582 122.335 222.687 127.306C221.792 132.973 220.002 137.945 217.318 142.22C214.733 146.495 211.552 149.975 207.773 152.659C204.095 155.443 200.118 157.332 195.843 158.326C191.568 159.42 187.342 159.519 183.166 158.625ZM392.133 172.055C389.15 172.055 386.416 171.607 383.931 170.712C381.445 169.917 379.357 168.674 377.667 166.984C376.076 165.294 374.883 163.156 374.088 160.571C373.292 158.086 373.093 155.153 373.491 151.772C375.38 135.666 376.325 111.659 376.325 95.751C376.325 79.8433 375.43 52.1842 373.64 36.7737C372.845 29.3169 374.187 23.8486 377.667 20.3688C381.246 16.7896 386.068 15 392.133 15C397.502 15 401.876 16.4913 405.257 19.474C408.637 22.4567 410.626 27.0302 411.222 33.1944C412.912 49.4004 413.757 78.2029 413.757 95.6019C413.757 113.001 412.912 137.853 411.222 154.159C410.626 160.124 408.637 164.598 405.257 167.581C401.876 170.563 397.502 172.055 392.133 172.055ZM284.607 127.306C283.911 122.335 283.364 116.817 282.966 110.752C282.668 104.588 282.519 98.3742 282.519 92.1106C282.519 85.7475 282.668 79.5335 282.966 73.4687C283.364 67.4039 283.911 61.8859 284.607 56.9148C285.899 47.6685 288.087 40.7586 291.169 36.1851C294.35 31.6116 298.626 28.8278 303.994 27.8336C306.182 27.4359 309.214 27.1376 313.092 26.9388C317.069 26.7399 321.145 26.6405 325.321 26.6405C329.496 26.6405 333.473 26.7399 337.251 26.9388C341.129 27.0382 344.161 27.237 346.349 27.5353C348.934 27.8336 351.27 28.3804 353.358 29.1758C355.545 29.8717 357.385 30.9654 358.876 32.4567C360.367 33.9481 361.511 35.8868 362.306 38.273C363.101 40.5597 363.499 43.443 363.499 46.9228C363.499 54.1807 362.008 59.4004 359.025 62.5819C356.142 65.664 351.916 67.2051 346.349 67.2051H315.329C314.036 67.2051 313.141 67.5531 312.644 68.249C312.147 68.945 311.948 69.7404 312.048 70.6352C312.246 71.4306 312.744 72.1265 313.539 72.7231C314.334 73.2202 315.428 73.3196 316.82 73.0213C318.61 72.5242 320.548 72.1762 322.636 71.9774C324.824 71.6791 326.961 71.4803 329.049 71.3809C331.137 71.182 333.076 71.0826 334.865 71.0826H339.488C343.565 71.0826 346.945 71.2814 349.63 71.6791C352.413 71.9774 354.65 72.6236 356.341 73.6179C358.031 74.5127 359.224 75.8052 359.92 77.4954C360.715 79.0861 361.113 81.1243 361.113 83.6099C361.113 86.692 360.765 89.1776 360.069 91.0666C359.472 92.9557 358.279 94.447 356.49 95.5406C354.8 96.5349 352.413 97.2309 349.331 97.6285C346.349 98.0262 342.521 98.3742 337.848 98.6725C335.76 98.7719 333.424 98.9707 330.839 99.269C328.254 99.5673 325.619 99.965 322.934 100.462C320.25 100.959 317.615 101.605 315.03 102.401C312.545 103.097 310.357 103.942 308.468 104.936C307.772 105.234 307.375 105.682 307.275 106.278C307.176 106.875 307.226 107.422 307.424 107.919C307.623 108.416 307.971 108.814 308.468 109.112C308.966 109.311 309.463 109.261 309.96 108.963C314.633 106.179 320.3 104.389 326.961 103.594C333.722 102.699 340.632 102.799 347.691 103.892C350.375 104.29 352.911 105.085 355.297 106.278C357.782 107.471 359.92 109.112 361.709 111.2C363.499 113.288 364.891 115.823 365.885 118.806C366.979 121.689 367.476 124.97 367.377 128.649C367.078 138.392 363.996 145.501 358.13 149.975C352.364 154.548 343.167 156.835 330.54 156.835C317.218 156.835 306.53 154.2 298.476 148.931C290.523 143.661 285.899 136.453 284.607 127.306ZM53.9867 65.1345C53.6885 64.6374 53.7879 63.9911 54.285 63.1957C54.5833 62.4998 55.0804 62.0524 55.7763 61.8535C56.5717 61.6547 57.218 61.7044 57.7151 62.0027C60.3001 63.494 63.2828 64.2894 66.6632 64.3888C70.143 64.3888 73.1754 63.6431 75.7604 62.1518C76.5558 61.7541 77.2517 61.7541 77.8483 62.1518C78.5442 62.4501 78.9916 62.8975 79.1905 63.494C79.3893 64.2894 79.3396 64.9356 79.0413 65.4328C78.7431 65.9299 78.2459 66.427 77.55 66.9241C74.1696 68.6143 70.5904 69.5091 66.8123 69.6085C63.1336 69.6085 59.6041 68.7137 56.2237 66.9241C55.1301 66.2281 54.3844 65.6316 53.9867 65.1345ZM41.4594 115.989C41.5588 116.984 41.6583 118.028 41.7577 119.121L37.2836 119.718L32.8096 120.314C28.8327 120.911 25.154 121.656 21.7736 122.551C18.3933 123.446 15.4603 124.54 12.9747 125.832C10.4891 127.125 8.60009 128.616 7.30759 130.306C6.0151 131.996 5.46827 133.836 5.66711 135.824C6.06481 139.901 8.50067 142.834 12.9747 144.623C17.5482 146.413 23.4141 147.357 30.5726 147.457C38.3276 147.656 45.4363 146.413 51.8988 143.728C58.3613 141.044 64.4759 137.564 70.2424 133.289C70.8389 132.792 71.5846 132.692 72.4794 132.991C73.4736 133.19 73.6725 133.538 73.076 134.035C69.795 136.918 67.3094 140 65.6192 143.281C64.0284 146.562 63.7302 150.241 64.7244 154.317C65.6192 157.896 68.4528 160.68 73.2251 162.668C77.9974 164.756 84.4599 165.701 92.6126 165.502C100.368 165.303 106.681 164.408 111.553 162.818C116.524 161.326 120.302 158.99 122.887 155.808C124.279 154.019 125.422 152.03 126.317 149.843C127.212 147.755 127.759 145.617 127.957 143.43C128.156 141.143 128.007 138.956 127.51 136.868C127.112 134.681 126.317 132.692 125.124 130.903C123.434 128.318 120.6 125.981 116.623 123.894C112.646 121.706 107.079 119.917 99.9202 118.525C98.6277 118.326 97.2855 118.177 95.8935 118.077C94.601 117.878 93.2588 117.68 91.8669 117.481C91.9663 116.984 92.016 116.437 92.016 115.84V114.051V112.708C96.7883 112.51 101.461 112.311 106.035 112.112C110.608 111.913 115.132 111.615 119.606 111.217C124.08 111.018 127.51 110.074 129.896 108.384C132.382 106.594 133.625 103.959 133.625 100.479C133.625 97.5961 132.382 95.21 129.896 93.3209C127.51 91.3325 124.13 90.4377 119.755 90.6365C111.503 91.1336 102.803 91.5313 93.6565 91.8296C84.609 92.1278 75.4621 92.277 66.2158 92.277C57.0688 92.277 48.0213 92.1776 39.0733 91.9787C30.1252 91.6804 21.6742 91.233 13.7204 90.6365C9.44519 90.4377 6.06481 91.3325 3.57923 93.3209C1.19308 95.21 0 97.5961 0 100.479C0 103.959 1.19308 106.544 3.57923 108.234C6.06481 109.925 9.44519 110.919 13.7204 111.217C18.095 111.615 22.569 111.913 27.1425 112.112C31.8154 112.311 36.5877 112.51 41.4594 112.708V115.989ZM46.688 56.528C46.688 58.7371 44.8971 60.528 42.688 60.528C40.4788 60.528 38.688 58.7371 38.688 56.528C38.688 54.3189 40.4788 52.528 42.688 52.528C44.8971 52.528 46.688 54.3189 46.688 56.528ZM89.688 60.528C91.8971 60.528 93.688 58.7371 93.688 56.528C93.688 54.3189 91.8971 52.528 89.688 52.528C87.4789 52.528 85.688 54.3189 85.688 56.528C85.688 58.7371 87.4789 60.528 89.688 60.528Z" fill="#FFFFFF"/>
</svg>
